<?xml version="1.0" standalone="no"?>
<!DOCTYPE svg PUBLIC "-//W3C//DTD SVG 20010904//EN"
 "http://www.w3.org/TR/2001/REC-SVG-20010904/DTD/svg10.dtd">
<svg version="1.0" xmlns="http://www.w3.org/2000/svg"
 width="330.000000pt" height="330.000000pt" viewBox="0 0 330.000000 330.000000"
 preserveAspectRatio="xMidYMid meet">
<metadata>
Created by potrace 1.11, written by Peter Selinger 2001-2013
</metadata>
<g transform="translate(0.000000,330.000000) scale(0.100000,-0.100000)"
fill="#000000" stroke="none">
<path d="M1415 2975 c-31 -30 -31 -51 -2 -77 23 -20 23 -20 6 -86 -14 -58 -20
-67 -45 -75 -41 -13 -64 -36 -64 -63 0 -26 11 -35 54 -43 31 -7 31 -7 39 -91
4 -47 11 -103 17 -125 l9 -40 -4 50 c-2 28 -7 83 -11 123 l-7 72 27 0 c14 0
29 1 33 3 7 2 9 -3 44 -126 31 -110 34 -89 3 27 -14 54 -24 99 -22 100 2 1 15
7 31 14 15 6 33 23 39 37 14 31 -4 53 -55 71 -31 11 -32 13 -30 65 1 51 12 70
46 82 6 2 10 18 10 37 0 64 -72 92 -118 45z m50 -200 l1 -135 -29 0 -29 0 7
68 c8 81 37 202 48 202 1 0 2 -61 2 -135z m-65 -90 c0 -49 -7 -53 -54 -35 -34
13 -33 41 2 62 43 28 52 23 52 -27z m141 26 c24 -19 24 -19 4 -40 -30 -34 -59
-24 -63 22 -3 31 0 37 16 37 11 0 30 -9 43 -19z"/>
<path d="M1533 2358 c-19 -21 -65 -23 -93 -6 -30 19 -74 -8 -78 -47 -3 -22
-14 -37 -45 -57 -106 -68 -211 -194 -252 -300 -10 -28 -28 -51 -46 -62 -56
-33 -78 -125 -41 -176 13 -20 17 -48 18 -130 1 -58 9 -135 18 -173 31 -134
109 -248 200 -294 28 -14 53 -27 55 -29 3 -2 7 -121 10 -264 l6 -260 36 -36
c41 -40 84 -53 177 -54 59 0 63 -2 60 -21 -2 -16 -19 -27 -68 -45 -92 -33
-140 -95 -140 -181 0 -37 17 -26 25 15 14 79 74 142 133 142 10 0 23 5 30 12
6 6 13 10 14 7 2 -2 12 -22 23 -44 16 -32 28 -42 65 -52 61 -18 100 -17 200 2
142 29 156 29 189 6 23 -16 31 -32 37 -66 l6 -45 59 0 59 0 -6 28 c-29 123
-89 176 -224 197 -55 9 -70 20 -70 51 0 13 -4 24 -10 24 -6 0 -10 39 -10 98 0
106 -11 211 -37 365 -20 122 -16 133 69 175 74 36 118 69 202 150 101 98 131
197 131 442 0 157 -13 244 -53 355 -74 210 -210 288 -500 289 -115 1 -135 -1
-149 -16z m87 -6 c0 -37 -184 -69 -225 -39 -20 15 -19 16 7 22 15 4 43 2 63
-5 30 -10 40 -9 73 8 39 20 82 28 82 14z m281 -33 c39 -21 86 -80 123 -154
102 -206 114 -490 29 -665 -24 -50 -114 -150 -134 -150 -5 0 -11 12 -14 28
-11 55 -36 131 -45 137 -4 3 -28 -3 -52 -13 -181 -77 -311 -104 -493 -103
l-143 1 33 -110 c17 -60 30 -111 28 -114 -3 -2 3 -18 12 -36 l16 -31 -38 20
c-120 64 -190 210 -200 417 -6 107 -5 114 13 114 10 0 89 -5 174 -10 166 -10
455 2 522 22 57 17 96 56 110 111 11 42 10 52 -6 81 -20 37 -67 66 -141 87
-71 20 -402 17 -510 -4 -44 -8 -82 -13 -84 -11 -5 5 34 84 56 113 44 57 98
112 149 151 52 41 55 42 86 29 19 -8 67 -14 109 -14 68 0 82 4 125 31 44 27
49 34 47 64 l-1 33 102 -5 c57 -3 114 -11 127 -19z m-287 -25 c9 -24 -67 -54
-139 -54 -66 0 -76 4 -94 37 -11 21 -10 22 20 11 35 -12 159 -5 186 11 10 6
19 11 19 11 1 0 5 -7 8 -16z m95 -369 c76 -24 111 -61 111 -119 0 -24 -4 -48
-10 -51 -6 -4 -10 7 -10 25 0 48 -51 93 -135 120 -53 17 -105 23 -215 28 -93
3 -136 8 -120 13 45 14 320 3 379 -16z m-416 8 c-7 -2 -19 -2 -25 0 -7 3 -2 5
12 5 14 0 19 -2 13 -5z m343 -49 c114 -26 147 -53 142 -119 -4 -53 -30 -65
-162 -76 -127 -10 -465 -10 -529 0 -101 17 -136 83 -79 150 24 30 38 36 98 47
105 19 447 18 530 -2z m-359 -715 c105 -42 236 -49 351 -20 65 16 72 16 66 2
-44 -106 -48 -131 -48 -383 l-1 -247 -61 -10 c-111 -20 -200 -10 -243 27 -18
16 -21 38 -34 292 -14 278 -18 305 -57 337 -19 16 -9 16 27 2z m337 -724 c9
-14 23 -25 31 -25 7 0 17 -5 20 -11 4 -5 -10 -3 -31 6 -36 15 -53 30 -54 48 0
15 18 6 34 -18z m216 -29 c0 -2 -7 -7 -16 -10 -8 -3 -12 -2 -9 4 6 10 25 14
25 6z"/>
<path d="M1270 1881 c-140 -7 -170 -14 -207 -50 -34 -32 -29 -65 13 -97 l35
-27 222 -1 c286 -1 388 18 395 75 4 33 -42 74 -96 88 -55 14 -210 19 -362 12z
m8 -69 c3 -27 0 -32 -17 -32 -16 0 -21 6 -21 28 0 53 33 56 38 4z m262 17 c14
-25 6 -49 -14 -49 -21 0 -29 17 -22 46 8 29 22 31 36 3z"/>
</g>
</svg>
